<?xml version="1.0" encoding="utf-8"?>
<!-- Generator: Adobe Illustrator 25.4.1, SVG Export Plug-In . SVG Version: 6.00 Build 0)  -->
<svg version="1.1" id="Capa_1" xmlns="http://www.w3.org/2000/svg" xmlns:xlink="http://www.w3.org/1999/xlink" x="0px" y="0px"
	 viewBox="0 0 112.85 94.95" style="enable-background:new 0 0 112.85 94.95;" xml:space="preserve">
<style type="text/css">
	.st0{fill:#1F1A3B;}
</style>
<g id="XMLID_00000022550475056352358950000000899709554906122152_">
	<g>
		<path id="XMLID_00000027594761718155340530000004418987478599539625_" class="st0" d="M102.01,17.58H85.42v-3.62
			c0-7.64-6.21-13.85-13.85-13.85H41.28c-7.63,0-13.85,6.21-13.85,13.85v3.62H10.84c-6,0-10.88,4.88-10.88,10.88v55.49
			c0,6,4.88,10.88,10.88,10.88h91.16c6,0,10.88-4.88,10.88-10.88V28.46C112.89,22.46,108.01,17.58,102.01,17.58z M108.96,83.95
			c0,3.83-3.12,6.95-6.95,6.95H10.84c-3.83,0-6.95-3.12-6.95-6.95V28.46c0-3.83,3.12-6.95,6.95-6.95H29.4
			c1.08,0,1.96-0.88,1.96-1.96v-5.58c0-5.47,4.45-9.92,9.92-9.92h30.29c5.47,0,9.92,4.45,9.92,9.92v5.58c0,1.08,0.88,1.96,1.97,1.96
			h18.56c3.83,0,6.95,3.12,6.95,6.95V83.95z"/>
		<path id="XMLID_00000018927647231472818390000001752309499407066753_" class="st0" d="M71.57,9.03H41.28
			c-2.72,0-4.93,2.21-4.93,4.93v5.58c0,1.08,0.88,1.96,1.97,1.96h7.52c0.03,0,0.07,0,0.11,0h1.5c0.04,0,0.07,0,0.11,0h2.41
			c0.03,0,0.07,0,0.1,0h12.74c0.04,0,0.07,0,0.1,0h2.41c0.03,0,0.07,0,0.1,0h1.5c0.03,0,0.07,0,0.11,0h7.52
			c1.09,0,1.97-0.88,1.97-1.96v-5.58C76.5,11.24,74.29,9.03,71.57,9.03z M72.57,17.58h-5.66c-0.03,0-0.07,0-0.1,0h-1.29
			c-0.03,0-0.07,0-0.1,0h-2.62c-0.03,0-0.07,0-0.1,0H50.16c-0.03,0-0.07,0-0.11,0h-2.62c-0.03,0-0.07,0-0.1,0h-1.29
			c-0.04,0-0.07,0-0.1,0h-5.65v-3.62c0-0.55,0.45-1,1-1h30.29c0.55,0,1,0.45,1,1V17.58z"/>
	</g>
</g>
</svg>
