<?xml version="1.0" encoding="utf-8"?>
<!-- Generator: Adobe Illustrator 25.4.1, SVG Export Plug-In . SVG Version: 6.00 Build 0)  -->
<svg version="1.1" id="Capa_1" xmlns="http://www.w3.org/2000/svg" xmlns:xlink="http://www.w3.org/1999/xlink" x="0px" y="0px"
	 viewBox="0 0 42.94 46.91" style="enable-background:new 0 0 42.94 46.91;" xml:space="preserve">
<style type="text/css">
	.st0{fill:#7D7979;}
</style>
<g>
	<g>
		<path class="st0" d="M17.67,36.12c-0.03,0.04-0.1,0.03-0.11-0.02L16.18,32l-0.4-1.18c-0.07-0.21-0.25-0.36-0.46-0.41l0,0
			c-0.46-0.09-0.86,0.35-0.7,0.8l1.07,3.2l1,2.98c0.18,0.54,0.89,0.69,1.27,0.26l10.23-12.08c0.31-0.35,0.13-0.92-0.34-1.01h0
			c-0.22-0.04-0.44,0.03-0.58,0.2L17.67,36.12z"/>
	</g>
	<g id="XMLID_10724_">
		<path id="XMLID_10728_" class="st0" d="M37.89,7.6h-1.34c-0.12,0-0.23,0.03-0.33,0.07V3.2c0-1.48-1.21-2.69-2.69-2.69
			c-1.48,0-2.69,1.21-2.69,2.69v4.42C30.8,7.61,30.75,7.6,30.7,7.6H12.24c-0.07,0-0.14,0.01-0.2,0.03V3.2
			c0-1.48-1.21-2.69-2.69-2.69c-1.48,0-2.69,1.21-2.69,2.69v4.45C6.57,7.62,6.48,7.6,6.39,7.6H5.05c-2.56,0-4.64,2.08-4.64,4.64
			v29.53c0,2.56,2.08,4.64,4.64,4.64h32.84c2.56,0,4.64-2.08,4.64-4.64V12.24C42.52,9.68,40.45,7.6,37.89,7.6z M32.35,3.2
			c0-0.65,0.53-1.18,1.18-1.18s1.18,0.53,1.18,1.18v8.1c0,0.65-0.53,1.18-1.18,1.18s-1.18-0.53-1.18-1.18V3.2z M8.17,3.2
			c0-0.65,0.53-1.18,1.18-1.18c0.65,0,1.18,0.53,1.18,1.18v8.1c0,0.65-0.53,1.18-1.18,1.18c-0.65,0-1.18-0.53-1.18-1.18V3.2z
			 M40.89,41.77c0,1.65-1.35,3-3,3H5.05c-1.65,0-3-1.35-3-3V12.24c0-1.66,1.35-3,3-3h0.52v1.6c0,2.07,1.68,3.75,3.74,3.75
			c2.06,0,3.74-1.68,3.74-3.75v-1.6h16.82v1.6c0,2.07,1.68,3.75,3.74,3.75c2.07,0,3.75-1.68,3.75-3.75v-1.6h0.52c1.65,0,3,1.35,3,3
			V41.77z"/>
		<path id="XMLID_10725_" class="st0" d="M38.51,19.37H4.57c-0.45,0-0.82,0.37-0.82,0.82v20.06c0,1.55,1.26,2.81,2.81,2.81h29.96
			c1.55,0,2.81-1.26,2.81-2.81V20.19C39.33,19.74,38.96,19.37,38.51,19.37z M37.69,40.25c0,0.65-0.53,1.18-1.18,1.18H6.56
			c-0.65,0-1.18-0.53-1.18-1.18V21.01h32.31V40.25z"/>
	</g>
</g>
</svg>
