<?xml version="1.0" encoding="utf-8"?>
<!-- Generator: Adobe Illustrator 25.4.1, SVG Export Plug-In . SVG Version: 6.00 Build 0)  -->
<svg version="1.1" id="Capa_1" xmlns="http://www.w3.org/2000/svg" xmlns:xlink="http://www.w3.org/1999/xlink" x="0px" y="0px"
	 viewBox="0 0 12.81 17.48" style="enable-background:new 0 0 12.81 17.48;" xml:space="preserve">
<style type="text/css">
	.st0{fill:#1F1A3B;stroke:#1F1A3B;stroke-miterlimit:10;}
</style>
<g id="XMLID_00000092417007287077331990000012692162582993927090_">
	<g>
		<path id="XMLID_00000073000688112799628360000008721367334300692633_" class="st0" d="M11,0.65c-0.1-0.08-0.22-0.11-0.34-0.08
			L0.89,2.74l0,0l-0.01,0C0.86,2.75,0.84,2.75,0.81,2.76c0,0-0.01,0-0.01,0.01C0.78,2.78,0.76,2.79,0.75,2.8
			c-0.01,0-0.01,0.01-0.02,0.02C0.71,2.82,0.7,2.83,0.69,2.84C0.68,2.85,0.68,2.86,0.67,2.87C0.66,2.88,0.65,2.89,0.64,2.9
			C0.64,2.91,0.63,2.92,0.62,2.93C0.62,2.94,0.61,2.95,0.6,2.96c0,0.01-0.01,0.02-0.01,0.03C0.59,3.01,0.58,3.02,0.58,3.04
			c0,0.01-0.01,0.02-0.01,0.03c0,0.02,0,0.03-0.01,0.05c0,0.01,0,0.01,0,0.02v13.38c0,0.23,0.18,0.41,0.41,0.41h10.86
			c0.23,0,0.41-0.18,0.41-0.41V3.14c0-0.23-0.18-0.41-0.41-0.41h-0.68V0.97C11.16,0.84,11.1,0.73,11,0.65z M10.34,2.73H4.69
			l5.65-1.25V2.73z M11.43,16.11H1.38V3.55h10.05V16.11z"/>
	</g>
</g>
</svg>
