<?xml version="1.0" encoding="utf-8"?>
<!-- Generator: Adobe Illustrator 25.4.1, SVG Export Plug-In . SVG Version: 6.00 Build 0)  -->
<svg version="1.1" xmlns="http://www.w3.org/2000/svg" xmlns:xlink="http://www.w3.org/1999/xlink" x="0px" y="0px"
	 viewBox="0 0 38.18 36.76" style="enable-background:new 0 0 38.18 36.76;" xml:space="preserve">
<style type="text/css">
	.st0{display:none;}
	.st1{display:inline;}
	.st2{fill:#FFFFFF;}
	.st3{fill:#1F1A3B;}
	.st4{fill-rule:evenodd;clip-rule:evenodd;fill:#1F1A3B;}
</style>
<g id="Capa_4" class="st0">
	<rect class="st1" width="38.18" height="36.76"/>
</g>
<g id="Capa_1">
	<g>
		<path class="st2" d="M37.37,13.55C35.79,4.49,27.37,4.2,27.37,4.2s-4.06,0-8.24,0c-0.03,0-0.05,0-0.08,0c-4.18,0-8.24,0-8.24,0
			S2.39,4.49,0.81,13.55c-0.55,3.15,1.72,2.83,1.72,2.83H6.6c2.55,0,2.47-2.81,2.47-2.81c0.4-2.2,1.78-4.89,6.13-4.89h3.86h0.08
			h3.85c4.35,0,5.73,2.69,6.13,4.89c0,0-0.09,2.81,2.47,2.81h4.07C35.65,16.38,37.92,16.7,37.37,13.55z"/>
		<path class="st2" d="M31.71,23.89c-4.14-7.16-6.21-10.07-6.21-10.07H12.85L6.18,24.79c0,0-4.6,7.61,5.29,7.61
			c9.89,0,18.17,0,18.17,0S35.85,31.05,31.71,23.89z M19.35,28.62c-3.18,0-5.76-2.51-5.76-5.61s2.58-5.61,5.76-5.61
			c3.18,0,5.76,2.51,5.76,5.61S22.53,28.62,19.35,28.62z"/>
	</g>
</g>
<g id="Capa_2" class="st0">
	<g class="st1">
		<ellipse class="st2" cx="19.09" cy="18.3" rx="17.56" ry="17.08"/>
		<path class="st3" d="M9.6,27.96l1.46-5.31c-0.83-1.45-1.27-3.08-1.27-4.74c0-5.41,4.52-9.81,10.08-9.81
			c5.56,0,10.08,4.4,10.08,9.81c0,5.41-4.52,9.81-10.08,9.81c-1.67,0-3.32-0.41-4.79-1.19L9.6,27.96z M15.37,24.54l0.35,0.2
			c1.27,0.74,2.71,1.12,4.17,1.12c4.51,0,8.18-3.57,8.18-7.96c0-4.39-3.67-7.96-8.18-7.96c-4.51,0-8.18,3.57-8.18,7.96
			c0,1.45,0.41,2.88,1.2,4.13l0.21,0.34l-0.82,2.97L15.37,24.54z"/>
		<path class="st4" d="M23.64,19.27c-0.42-0.24-0.96-0.51-1.44-0.32c-0.38,0.15-0.61,0.72-0.86,1.01c-0.12,0.15-0.27,0.17-0.47,0.1
			c-1.41-0.55-2.49-1.46-3.26-2.72c-0.13-0.2-0.11-0.35,0.05-0.53c0.23-0.27,0.53-0.57,0.59-0.94c0.06-0.36-0.11-0.79-0.27-1.11
			c-0.2-0.41-0.42-1-0.84-1.23c-0.39-0.21-0.9-0.09-1.25,0.18c-0.6,0.48-0.89,1.22-0.88,1.96c0,0.21,0.03,0.42,0.08,0.62
			c0.12,0.49,0.35,0.94,0.61,1.37c0.2,0.33,0.41,0.64,0.64,0.95c0.75,1,1.69,1.86,2.78,2.51c0.54,0.32,1.13,0.61,1.73,0.8
			c0.68,0.22,1.28,0.44,2.01,0.31c0.77-0.14,1.52-0.6,1.83-1.32c0.09-0.21,0.14-0.45,0.08-0.67C24.67,19.77,24.03,19.5,23.64,19.27z
			"/>
	</g>
</g>
<g id="Capa_3" class="st0">
	<g class="st1">
		<circle class="st2" cx="19.09" cy="18.38" r="18"/>
		<g id="XMLID_10751_">
			<g>
				<path id="XMLID_00000099648931986637270600000008267978102727872897_" class="st3" d="M14.97,13.88h7.97
					c0.15,0,0.27-0.12,0.27-0.27c0-0.15-0.12-0.27-0.27-0.27h-7.97c-0.15,0-0.27,0.12-0.27,0.27C14.7,13.76,14.82,13.88,14.97,13.88
					z"/>
				<path id="XMLID_00000008863774920112182600000000991450561389763738_" class="st3" d="M23.22,16c0-0.15-0.12-0.27-0.27-0.27
					h-7.97c-0.15,0-0.27,0.12-0.27,0.27c0,0.15,0.12,0.27,0.27,0.27h7.97C23.1,16.27,23.22,16.15,23.22,16z"/>
				<path id="XMLID_00000163756424810558494420000010729473472797496468_" class="st3" d="M29.17,15.33l-3.37-2.46v-0.59
					c0-1.19-1-2.15-2.24-2.15h-1.52l-2.72-1.99c-0.14-0.1-0.34-0.1-0.48,0l-2.72,1.99h-1.52c-1.23,0-2.24,0.97-2.24,2.15v0.59
					l-3.37,2.46c-0.1,0.08-0.17,0.2-0.17,0.33c0,0.02,0,0.04,0.01,0.07c0,0.02-0.01,0.04-0.01,0.06v10.17
					c0,0.06,0.02,0.12,0.04,0.17c-0.04,0.09-0.05,0.2-0.02,0.3c0.06,0.17,0.21,0.28,0.39,0.28h19.68c0.18,0,0.33-0.11,0.39-0.28
					c0.03-0.1,0.02-0.21-0.02-0.3c0.02-0.05,0.04-0.11,0.04-0.17V15.78c0-0.02-0.01-0.04-0.01-0.05c0-0.02,0.01-0.05,0.01-0.07
					C29.34,15.53,29.27,15.41,29.17,15.33z M25.8,13.88l2.44,1.79l-2.36,1.81l-0.09,0.06V13.88z M19.09,8.98l1.57,1.15h-3.15
					L19.09,8.98z M13.19,12.28c0-0.74,0.64-1.33,1.42-1.33h8.96c0.78,0,1.42,0.6,1.42,1.33v5.86l-3.22,2.34
					c-0.05,0.01-0.11,0.03-0.15,0.07l-2.5,1.89l-2.62-1.89v0l0,0l-3.3-2.4V12.28z M12.38,13.88v3.59l-2.44-1.81L12.38,13.88z
					 M9.66,16.58l5.9,4.28l-5.9,4.28V16.58z M10.45,25.88l5.82-4.5l2.61,1.89c0.15,0.11,0.34,0.1,0.49,0l2.49-1.88l5.86,4.5H10.45z
					 M28.52,25.15l-5.9-4.28l5.9-4.28V25.15z"/>
			</g>
		</g>
	</g>
</g>
</svg>
