<?xml version="1.0" encoding="utf-8"?>
<!-- Generator: Adobe Illustrator 25.4.1, SVG Export Plug-In . SVG Version: 6.00 Build 0)  -->
<svg version="1.1" xmlns="http://www.w3.org/2000/svg" xmlns:xlink="http://www.w3.org/1999/xlink" x="0px" y="0px"
	 viewBox="0 0 50.31 49.98" style="enable-background:new 0 0 50.31 49.98;" xml:space="preserve">
<style type="text/css">
	.st0{display:none;}
	.st1{display:inline;fill:#FFFFFF;}
	.st2{display:inline;}
	.st3{fill:#1F1A3B;}
	.st4{display:inline;fill:#1F1A3B;}
	.st5{fill:#FFFFFF;}
	.st6{fill-rule:evenodd;clip-rule:evenodd;fill:#FFFFFF;}
</style>
<g id="Background" class="st0">
	<path class="st1" d="M38.32,49.37H11.99c-6.2,0-11.22-5.02-11.22-11.22l0-26.33c0-6.2,5.02-11.22,11.22-11.22l26.33,0
		c6.2,0,11.22,5.02,11.22,11.22v26.33C49.54,44.35,44.52,49.37,38.32,49.37z"/>
</g>
<g id="Linkedin" class="st0">
	<g class="st2">
		<g>
			<path class="st3" d="M13.56,20.97h4.98v15.99h-4.98V20.97z M16.05,13.02c1.77,0,3.17,1.6,2.83,3.43
				c-0.21,1.16-1.17,2.1-2.33,2.29c-1.82,0.3-3.39-1.09-3.39-2.84C13.16,14.31,14.45,13.02,16.05,13.02"/>
			<path class="st3" d="M21.65,20.97h4.77v2.19h0.07c0.66-1.26,2.29-2.58,4.71-2.58c5.03,0,5.96,3.31,5.96,7.62v8.77h-4.97v-7.78
				c0-1.86-0.04-4.24-2.58-4.24c-2.59,0-2.98,2.02-2.98,4.11v7.91h-4.97V20.97z"/>
		</g>
	</g>
</g>
<g id="YouTube" class="st0">
	<path class="st1" d="M38.32,49.37H11.99c-6.2,0-11.22-5.02-11.22-11.22l0-26.33c0-6.2,5.02-11.22,11.22-11.22l26.33,0
		c6.2,0,11.22,5.02,11.22,11.22v26.33C49.54,44.35,44.52,49.37,38.32,49.37z"/>
	<path class="st4" d="M38.85,21.41c0-3.32-2.69-6.01-6.01-6.01H17.47c-3.32,0-6.01,2.69-6.01,6.01v7.15c0,3.32,2.69,6.01,6.01,6.01
		h15.37c3.32,0,6.01-2.69,6.01-6.01V21.41z M29.81,25.52l-6.89,3.41c-0.27,0.15-1.19-0.05-1.19-0.36v-7c0-0.31,0.93-0.51,1.2-0.35
		l6.6,3.59C29.8,24.97,30.09,25.37,29.81,25.52z"/>
</g>
<g id="X" class="st0">
	<path class="st4" d="M38.45,17.64c-0.71,0.58-1.06,1.47-1.07,2.39c-0.14,7.95-5.56,15.05-13.15,17.13
		c-4.8,1.31-9.44,0.79-13.83-1.63c-0.16-0.09-0.3-0.19-0.43-0.48c0.45,0,0.9,0.01,1.35,0c2.4-0.08,4.62-0.77,6.63-2.12
		c0.21-0.14,0.6-0.23,0.51-0.58c-0.07-0.28-0.42-0.2-0.66-0.25c-1.91-0.41-3.4-1.42-4.38-3.15c-0.51-0.91-0.42-1.07,0.59-1.11
		c0.4-0.02,0.81,0.07,1.26-0.19c-0.24-0.35-0.58-0.37-0.86-0.5c-1.97-0.95-3.21-2.49-3.66-4.65c-0.19-0.92,0-1.06,0.9-0.83
		c0.44,0.11,0.87,0.37,1.36,0.15c-0.02-0.39-0.35-0.52-0.55-0.74c-1.75-2-2.23-4.26-1.37-6.79c0.18-0.53,0.68-0.59,1.06-0.18
		c2.95,3.23,6.59,5.16,10.88,5.86c1.48,0.24,1.56,0.18,1.6-1.21c0.08-2.5,1.41-4.91,3.66-5.96c2.31-1.08,4.62-0.88,6.66,0.74
		c0.66,0.52,1.23,0.65,1.97,0.35c0.81-0.32,1.63-0.62,2.63-1c-0.38,1.38-1.23,2.22-2.27,3.11c1.16,0.15,2.02-0.36,3.07-0.59
		C39.89,16.39,39.17,17.05,38.45,17.64z"/>
</g>
<g id="Instagram">
	<g>
		<path class="st5" d="M25.25,0.61c3.49,0,6.98,0.02,10.46,0c2.7-0.02,5.41,0.62,7.65,2.11c3.01,2.01,5.02,4.72,5.81,8.15
			c0.39,1.72,0.41,13.86,0.07,21.37c-0.29,6.29-0.65,11.13-5.33,14.62c-2.26,1.69-5.09,2.46-7.92,2.47c-7,0.02-14,0.07-21-0.01
			c-3.75-0.04-7.45-1.37-10.13-3.98c-2.77-2.71-4-5.94-4-9.48c-0.01-6.84-0.05-13.68,0-20.52c0.03-3.08,0.82-6.15,2.52-8.71
			c2.88-4.34,6.76-6.02,11-6.02C18,0.61,21.63,0.61,25.25,0.61z M45.26,24.99c0-3.55,0-7.11,0-10.66c0-1.27-0.41-3.27-1.01-4.39
			c-1.74-3.27-4.52-4.97-8.29-4.99C28.81,4.9,21.64,4.93,14.48,4.93c-1.47,0-2.95,0.29-4.25,0.98c-3.3,1.75-5.02,4.54-5.04,8.32
			C5.15,21.4,5.17,28.56,5.18,35.73c0,1.45,0.29,2.92,0.97,4.21c1.73,3.3,4.5,5.04,8.27,5.07c6.99,0.05,13.98,0.04,20.97,0.01
			c1.95-0.01,3.91-0.47,5.56-1.52c3.27-2.08,4.33-4.83,4.33-7.84C45.26,32.1,45.26,28.54,45.26,24.99z"/>
		<path class="st5" d="M12.67,24.93c0.04-6.92,5.7-12.54,12.6-12.5c6.92,0.04,12.54,5.7,12.5,12.6c-0.04,6.92-5.7,12.54-12.6,12.5
			C18.25,37.49,12.63,31.82,12.67,24.93z M23.14,32.95c6.27,1.53,11.8-4.16,9.95-10.42c-0.8-2.71-3.05-4.87-5.79-5.54
			c-6.26-1.52-11.78,4.16-9.94,10.41C18.15,30.11,20.39,32.28,23.14,32.95z"/>
		<path class="st5" d="M38.32,15.08c-1.75,0.01-3.19-1.42-3.19-3.16c0-1.72,1.43-3.14,3.16-3.16c1.73-0.02,3.19,1.44,3.19,3.17
			C41.47,13.66,40.05,15.07,38.32,15.08z"/>
	</g>
</g>
<g id="Facebook" class="st0">
	<g class="st2">
		<path class="st6" d="M38.71,0.79H11.89c-6.04,0-10.93,4.89-10.93,10.93v26.54c0,6.04,4.89,10.93,10.93,10.93h14.56V30.88v-0.3
			h-3.41c-0.26,0-0.48-0.21-0.48-0.48v-5.62c0-0.26,0.21-0.48,0.48-0.48h3.41v-5.42c0-3.78,3.06-6.84,6.84-6.84h6.43
			c0.26,0,0.48,0.21,0.48,0.48v5.62c0,0.26-0.21,0.48-0.48,0.48H35.9c-0.93,0-1.69,0.76-1.69,1.69v3.98h5.41
			c0.28,0,0.5,0.24,0.48,0.52l-0.47,5.62c-0.02,0.25-0.23,0.44-0.48,0.44h-4.94v18.61h4.22c6.04,0,10.93-4.89,10.93-10.93V11.44
			C49.36,5.55,44.59,0.79,38.71,0.79z"/>
	</g>
</g>
</svg>
