<?xml version="1.0" encoding="utf-8"?>
<!-- Generator: Adobe Illustrator 25.4.1, SVG Export Plug-In . SVG Version: 6.00 Build 0)  -->
<svg version="1.1" id="Capa_1" xmlns="http://www.w3.org/2000/svg" xmlns:xlink="http://www.w3.org/1999/xlink" x="0px" y="0px"
	 viewBox="0 0 50.31 49.98" style="enable-background:new 0 0 50.31 49.98;" xml:space="preserve">
<style type="text/css">
	.st0{fill:#FFFFFF;}
	.st1{fill:#1F1A3B;}
</style>
<g>
	<path class="st0" d="M38.32,49.37H11.99c-6.2,0-11.22-5.02-11.22-11.22l0-26.33c0-6.2,5.02-11.22,11.22-11.22l26.33,0
		c6.2,0,11.22,5.02,11.22,11.22v26.33C49.54,44.35,44.52,49.37,38.32,49.37z"/>
	<g>
		<g>
			<path class="st1" d="M13.56,20.97h4.98v15.99h-4.98V20.97z M16.05,13.02c1.77,0,3.17,1.6,2.83,3.43
				c-0.21,1.16-1.17,2.1-2.33,2.29c-1.82,0.3-3.39-1.09-3.39-2.84C13.16,14.31,14.45,13.02,16.05,13.02"/>
			<path class="st1" d="M21.65,20.97h4.77v2.19h0.07c0.66-1.26,2.29-2.58,4.71-2.58c5.03,0,5.96,3.31,5.96,7.62v8.77h-4.97v-7.78
				c0-1.86-0.04-4.24-2.58-4.24c-2.59,0-2.98,2.02-2.98,4.11v7.91h-4.97V20.97z"/>
		</g>
	</g>
</g>
</svg>
